<svg version="1.1" id="Layer_1" xmlns="http://www.w3.org/2000/svg" xmlns:xlink="http://www.w3.org/1999/xlink" x="0px" y="0px"
	 width="100%" viewBox="0 0 496 496" enable-background="new 0 0 496 496" xml:space="preserve">
<path fill="#000000" opacity="1.000000" stroke="none" 
	d="
M251.594681,210.887955 
	C255.138763,210.825516 255.420746,212.970123 255.499451,215.269501 
	C256.204437,235.865524 242.258896,251.319077 220.048752,250.944839 
	C201.333359,250.629486 189.300339,239.990372 186.382492,221.777374 
	C183.391769,203.109421 194.498978,184.739868 216.792618,182.791336 
	C232.812836,181.391113 246.185760,188.396835 252.002411,200.502701 
	C252.776520,202.113785 253.835739,203.701355 253.323364,206.663483 
	C245.711258,205.946060 237.795349,209.726379 230.421600,203.535400 
	C224.248398,198.352371 214.875076,199.322586 209.533142,205.029129 
	C204.110794,210.821579 203.891418,221.976227 209.079071,228.116974 
	C213.575806,233.439896 223.663773,234.776733 229.704254,230.792511 
	C231.475510,229.624207 233.352859,228.454086 233.660553,225.270950 
	C229.442230,225.270950 225.347672,225.198502 221.257111,225.295441 
	C218.336090,225.364639 216.899719,224.101089 216.920105,221.177032 
	C216.928223,220.011215 216.890442,218.845078 216.900925,217.679321 
	C216.959213,211.201050 217.250473,210.882355 223.656387,210.866608 
	C232.817993,210.844086 241.979691,210.866943 251.594681,210.887955 
z"/>
<path fill="#000000" opacity="1.000000" stroke="none" 
	d="
M317.871063,189.808380 
	C320.253815,189.049408 322.064148,187.639023 325.171387,188.021713 
	C325.171387,194.328949 325.344879,200.710800 325.083008,207.074722 
	C324.983154,209.501556 322.237549,209.681274 320.466827,210.270569 
	C317.285370,211.329361 315.953522,213.198135 316.218048,216.571320 
	C316.451569,219.548508 316.492126,222.582413 316.200104,225.550186 
	C315.662231,231.017166 316.332245,235.516357 322.881500,236.678940 
	C324.061066,236.888306 325.144318,237.736481 325.160309,239.032639 
	C325.237274,245.271057 325.194946,251.510941 325.194946,257.541229 
	C322.681915,258.270508 321.194092,257.341858 319.684021,256.758118 
	C300.757812,249.441864 281.882446,241.991959 262.899353,234.827148 
	C258.971832,233.344772 257.560272,231.209427 257.711609,227.079239 
	C258.344025,209.823059 254.782959,214.543976 270.998749,207.991821 
	C286.418335,201.761398 302.002075,195.937286 317.871063,189.808380 
M300.579529,227.994095 
	C300.808502,224.410385 301.217773,220.816681 300.113129,216.707275 
	C294.511017,218.653824 289.102112,220.167160 283.063782,223.284454 
	C289.594238,225.128601 294.486969,228.082123 300.579529,227.994095 
z"/>
<path fill="#000000" opacity="1.000000" stroke="none" 
	d="
M200.083618,263.229553 
	C208.736908,252.271683 230.941895,252.429001 240.819183,260.103760 
	C245.400665,263.663635 247.899307,268.358704 248.913605,273.991943 
	C249.405014,276.721100 248.538483,278.196533 245.652710,278.203003 
	C241.656372,278.211975 237.659836,278.192047 233.663727,278.225128 
	C231.540802,278.242737 230.241455,277.336609 229.694321,275.226959 
	C228.921478,272.247009 226.578827,270.914490 223.834061,270.509979 
	C220.560699,270.027527 217.028458,270.342621 215.898361,274.000488 
	C214.703568,277.867767 218.119980,279.217987 220.918488,280.176819 
	C225.944672,281.899048 231.210281,282.953339 236.172195,284.826233 
	C248.136856,289.342316 253.068741,299.369904 249.257523,310.629639 
	C247.434708,316.014893 243.878708,319.810181 238.700821,321.952209 
	C228.520081,326.163788 218.239365,326.036407 208.146225,321.757172 
	C201.164871,318.797241 197.417435,313.082886 195.941559,305.765198 
	C195.273773,302.454102 196.263412,300.621857 199.969131,300.767181 
	C202.961716,300.884430 205.967590,300.870850 208.959671,300.737762 
	C212.320755,300.588257 214.787354,300.903229 216.183212,304.940643 
	C217.546631,308.884216 224.274673,310.088379 227.950897,307.784515 
	C230.868027,305.956360 230.946136,302.653809 228.000610,300.359314 
	C225.862045,298.693420 223.242249,298.042328 220.664139,297.351196 
	C217.295853,296.448212 213.853088,295.736603 210.591507,294.537079 
	C196.498444,289.354126 192.058289,276.381165 200.083618,263.229553 
z"/>
<path fill="#000000" opacity="1.000000" stroke="none" 
	d="
M319.106934,273.996216 
	C325.553467,282.790955 324.327789,292.611633 324.243500,302.215973 
	C324.222839,304.573517 322.402557,304.639496 320.666016,304.627106 
	C317.003632,304.601013 313.339874,304.480804 309.679535,304.550690 
	C307.005188,304.601807 305.551605,303.614532 305.717957,300.784882 
	C305.747192,300.287415 305.708679,299.785828 305.697418,299.286224 
	C305.402496,286.197021 304.516998,285.341827 291.174927,285.335236 
	C281.513153,285.330444 271.847778,285.185974 262.191345,285.414551 
	C258.017914,285.513336 256.768188,283.940582 256.718994,279.896637 
	C256.545105,265.593170 256.423309,265.578796 270.803558,265.581909 
	C280.960541,265.584106 291.119080,265.539062 301.273956,265.700348 
	C308.238129,265.810974 314.258789,268.297546 319.106934,273.996216 
z"/>
<path fill="#000000" opacity="1.000000" stroke="none" 
	d="
M275.520172,366.073883 
	C271.123474,364.790253 269.224518,362.957092 271.237152,358.291351 
	C272.359467,355.689575 273.308197,352.633698 271.962219,349.291748 
	C270.854126,346.540375 272.474396,343.931732 275.438416,343.056183 
	C277.923981,342.321930 280.654785,342.636322 283.002136,341.046417 
	C283.828613,340.486633 284.922333,341.155396 285.234192,342.350494 
	C286.655182,347.795959 283.859741,352.621613 277.597717,354.677490 
	C278.766754,354.971100 279.415955,355.181732 280.081757,355.293182 
	C283.099701,355.798309 286.373962,356.120483 286.237915,360.309937 
	C286.098846,364.591797 282.895142,365.674316 279.416779,366.190430 
	C278.280579,366.359009 277.091888,366.174011 275.520172,366.073883 
z"/>
<path fill="#000000" opacity="1.000000" stroke="none" 
	d="
M177.914764,337.885559 
	C180.942245,337.956329 181.123703,339.883453 181.118286,341.739105 
	C181.110657,344.354919 182.000290,345.719635 184.884171,345.702759 
	C187.522064,345.687317 188.918076,344.872375 188.998108,342.044952 
	C189.052124,340.136200 188.897385,337.693451 191.927094,337.878357 
	C195.051117,338.069000 194.235275,340.630493 194.278824,342.434967 
	C194.386871,346.911560 194.332260,351.393250 194.272903,355.871979 
	C194.252899,357.382172 194.116898,358.963074 192.052628,359.140259 
	C189.772659,359.335968 189.354401,357.810730 189.084290,356.023407 
	C188.801788,354.154053 189.665527,351.894043 187.512711,350.600006 
	C184.586868,348.841278 181.523071,350.706909 181.107010,354.419434 
	C180.879913,356.445923 181.486801,359.273865 178.163788,359.080566 
	C174.830276,358.886597 175.814087,355.993103 175.739410,354.052399 
	C175.586441,350.076385 175.644928,346.089478 175.718567,342.108948 
	C175.747665,340.536041 175.322952,338.659302 177.914764,337.885559 
z"/>
<path fill="#000000" opacity="1.000000" stroke="none" 
	d="
M225.731232,347.032440 
	C226.700592,344.732727 227.970444,342.950165 230.111725,342.910095 
	C233.609497,342.844574 236.214264,342.291779 236.449463,338.009918 
	C236.520874,336.709961 238.088760,336.586151 239.302536,336.714294 
	C240.766190,336.868744 241.208618,337.906952 241.213348,339.161591 
	C241.235168,344.953583 241.231552,350.745850 241.198410,356.537750 
	C241.192688,357.538391 240.900513,359.038666 239.894104,358.896729 
	C235.886536,358.331604 231.579575,361.295563 227.906677,358.306000 
	C224.389359,355.443085 224.246475,351.504791 225.731232,347.032440 
M235.033813,354.028687 
	C236.082199,352.531921 236.115799,350.832336 235.542572,349.255249 
	C234.733490,347.029266 232.992096,346.578522 231.247360,348.096161 
	C229.686172,349.454071 229.980682,351.520447 230.556946,353.238525 
	C231.207794,355.178955 232.718826,355.615356 235.033813,354.028687 
z"/>
<path fill="#000000" opacity="1.000000" stroke="none" 
	d="
M197.687561,351.843262 
	C198.136581,345.439606 200.205078,342.984833 205.026230,342.701843 
	C209.906265,342.415405 212.548660,344.426056 213.465073,349.123199 
	C214.460129,354.223450 212.289322,358.266663 208.001480,359.299438 
	C202.560623,360.609924 199.160629,358.288818 197.687561,351.843262 
M203.349808,353.953674 
	C205.656113,356.328064 207.495148,355.646362 208.471695,352.837860 
	C209.044907,351.189270 209.104202,349.223267 207.455841,347.867859 
	C206.466721,347.054504 205.239258,347.003571 204.261566,347.733673 
	C202.303070,349.196136 201.896988,351.146698 203.349808,353.953674 
z"/>
<path fill="#000000" opacity="1.000000" stroke="none" 
	d="
M263.780090,356.765625 
	C263.689331,354.328033 263.689270,352.336700 263.605835,350.348877 
	C263.536346,348.693420 262.908691,347.350708 260.995117,347.399200 
	C259.145508,347.446045 258.451172,348.757507 258.364532,350.409729 
	C258.260376,352.396118 258.295715,354.389893 258.187225,356.375916 
	C258.110870,357.773468 257.728821,359.029175 255.981506,359.144409 
	C254.013458,359.274170 253.356400,358.024292 253.210876,356.384613 
	C253.079178,354.901245 253.059341,353.404388 253.058716,351.913452 
	C253.054688,342.310181 254.004410,341.500702 263.567139,342.727814 
	C266.236267,343.070343 267.946106,344.538788 268.154541,347.144958 
	C268.404877,350.274658 268.253632,353.439423 268.208893,356.588013 
	C268.194641,357.590393 267.955841,358.617340 266.780060,358.936493 
	C265.248260,359.352234 264.194305,358.850983 263.780090,356.765625 
z"/>
<path fill="#000000" opacity="1.000000" stroke="none" 
	d="
M324.278625,354.070007 
	C324.010620,356.340027 324.879578,359.026703 321.836731,359.061798 
	C318.512115,359.100067 319.323212,356.232971 319.083008,354.236969 
	C318.984406,353.417328 319.062958,352.576416 319.060364,351.745178 
	C319.031311,342.437500 320.354034,341.334961 329.707825,342.741302 
	C332.157501,343.109650 333.844055,344.492859 334.073120,346.839539 
	C334.394531,350.131683 334.247467,353.473785 334.217987,356.793762 
	C334.206726,358.063812 333.635773,359.040558 332.163788,359.099548 
	C330.411255,359.169861 329.850586,358.048676 329.770325,356.573181 
	C329.680145,354.914795 329.702209,353.250580 329.648438,351.589783 
	C329.589630,349.772675 329.830231,347.533844 327.268250,347.413971 
	C324.456757,347.282410 324.367615,349.568878 324.300262,351.633972 
	C324.278595,352.298401 324.285767,352.963776 324.278625,354.070007 
z"/>
<path fill="#000000" opacity="1.000000" stroke="none" 
	d="
M300.116455,353.295990 
	C299.102783,359.026367 293.471497,361.517029 289.011322,358.601166 
	C287.899231,357.874146 286.682465,357.019989 287.542664,355.417572 
	C288.287231,354.030579 289.369598,353.865479 290.887939,354.502136 
	C292.609497,355.224030 292.682892,355.049011 294.766022,354.435852 
	C293.818512,352.739197 291.890747,353.064148 290.514191,352.325500 
	C288.423370,351.203552 287.059296,349.627716 287.291412,347.226410 
	C287.523285,344.827118 289.095245,343.266144 291.440399,342.898560 
	C293.869904,342.517700 296.571503,342.029724 298.447845,344.157532 
	C299.828735,345.723511 298.767487,346.838226 297.057098,347.404388 
	C295.700592,347.853394 294.270325,346.079926 292.550354,347.897339 
	C295.253784,349.417145 298.898804,349.503296 300.116455,353.295990 
z"/>
<path fill="#000000" opacity="1.000000" stroke="none" 
	d="
M337.039978,350.218079 
	C339.073273,343.517761 343.473724,340.940552 348.580383,343.176331 
	C350.110992,343.846466 351.849976,344.818268 351.129211,346.838104 
	C350.515808,348.556976 348.981750,348.533691 347.384918,347.747955 
	C345.584290,346.861938 343.679657,346.768585 342.694061,348.862732 
	C341.905396,350.538483 341.861542,352.474396 343.033203,354.081909 
	C344.561951,356.179413 346.142273,355.201996 347.689911,353.970093 
	C348.966278,352.954163 350.359680,353.223907 351.218018,354.362885 
	C352.427551,355.967743 351.134888,357.166260 349.975677,358.105011 
	C347.535034,360.081360 344.711761,360.109802 341.970490,359.025787 
	C338.238068,357.549835 337.048920,354.372375 337.039978,350.218079 
z"/>
<path fill="#000000" opacity="1.000000" stroke="none" 
	d="
M309.929199,356.610901 
	C309.857300,351.199707 309.824310,346.248566 309.838531,341.297607 
	C309.843628,339.527649 310.228241,337.933899 312.469604,337.872711 
	C314.721924,337.811249 315.203064,339.339355 315.211212,341.148712 
	C315.233551,346.099762 315.236450,351.051270 315.193176,356.002106 
	C315.181458,357.343903 314.996735,358.754242 313.333160,359.084656 
	C311.675232,359.414001 310.393951,358.918030 309.929199,356.610901 
z"/>
<path fill="#000000" opacity="1.000000" stroke="none" 
	d="
M216.692795,349.892334 
	C216.714874,346.095398 216.703568,342.776917 216.776031,339.460236 
	C216.807861,338.002747 217.328430,336.850189 219.105988,336.894775 
	C220.897888,336.939697 221.276077,338.177856 221.297241,339.591553 
	C221.351852,343.240967 221.317062,346.891663 221.359131,350.541382 
	C221.377960,352.176086 221.093048,353.906128 222.414780,355.251099 
	C223.638702,356.496552 225.026749,357.966339 222.803757,359.234863 
	C220.846405,360.351715 218.918640,359.529327 217.641937,357.645477 
	C216.118668,355.397827 216.885193,352.814026 216.692795,349.892334 
z"/>
<path fill="#000000" opacity="1.000000" stroke="none" 
	d="
M249.969894,352.893372 
	C249.858749,354.679749 249.832260,356.015900 249.614929,357.320221 
	C249.388733,358.677704 248.431046,359.216736 247.081055,359.153229 
	C245.668076,359.086792 244.881714,358.295807 244.861282,356.964966 
	C244.799973,352.973114 244.794434,348.978882 244.867264,344.987396 
	C244.892197,343.621368 245.815353,342.945099 247.183838,342.911652 
	C248.603561,342.876953 249.419327,343.681549 249.541397,344.969482 
	C249.776306,347.447327 249.837448,349.941650 249.969894,352.893372 
z"/>
<path fill="#000000" opacity="1.000000" stroke="none" 
	d="
M353.766541,357.759277 
	C353.452026,354.871094 354.593689,353.564270 357.110107,354.269928 
	C358.646637,354.700775 359.671387,356.129517 358.732178,357.711456 
	C357.468140,359.840576 355.673523,359.859253 353.766541,357.759277 
z"/>
<path fill="#000000" opacity="1.000000" stroke="none" 
	d="
M248.994110,337.117035 
	C250.659134,339.430817 249.984390,340.822113 247.679092,341.286133 
	C245.988480,341.626404 244.637726,340.873138 244.807709,338.921173 
	C245.028412,336.386902 246.671570,336.145386 248.994110,337.117035 
z"/>
</svg>